<svg width="159" height="26" viewBox="0 0 159 26" fill="none" xmlns="http://www.w3.org/2000/svg">
<path fill-rule="evenodd" clip-rule="evenodd" d="M13 0C20.1797 0 26 5.8203 26 13C26 15.5587 25.2603 17.9444 23.9838 19.9559L13 8.97207L2.01619 19.9559C0.739681 17.9444 0 15.5587 0 13C0 5.8203 5.8203 0 13 0Z" fill="#fff"/>
<path fill-rule="evenodd" clip-rule="evenodd" d="M22.2057 22.1784C19.8522 24.539 16.5971 26 13.0004 26C9.40364 26 6.1485 24.5389 3.79504 22.1783L13.0004 12.973L22.2057 22.1784Z" fill="#fff"/>
<path d="M39.886 20.126C38.878 20.126 37.978 19.916 37.186 19.496C36.406 19.064 35.794 18.476 35.35 17.732C34.906 16.988 34.684 16.142 34.684 15.194C34.684 14.234 34.906 13.388 35.35 12.656C35.794 11.912 36.406 11.33 37.186 10.91C37.978 10.49 38.878 10.28 39.886 10.28C40.822 10.28 41.644 10.472 42.352 10.856C43.072 11.228 43.618 11.78 43.99 12.512L42.262 13.52C41.974 13.064 41.62 12.728 41.2 12.512C40.792 12.296 40.348 12.188 39.868 12.188C39.316 12.188 38.818 12.308 38.374 12.548C37.93 12.788 37.582 13.136 37.33 13.592C37.078 14.036 36.952 14.57 36.952 15.194C36.952 15.818 37.078 16.358 37.33 16.814C37.582 17.258 37.93 17.6 38.374 17.84C38.818 18.08 39.316 18.2 39.868 18.2C40.348 18.2 40.792 18.092 41.2 17.876C41.62 17.66 41.974 17.324 42.262 16.868L43.99 17.876C43.618 18.596 43.072 19.154 42.352 19.55C41.644 19.934 40.822 20.126 39.886 20.126ZM50.3124 20.126C49.2444 20.126 48.3084 19.916 47.5044 19.496C46.7124 19.064 46.0944 18.476 45.6504 17.732C45.2184 16.988 45.0024 16.142 45.0024 15.194C45.0024 14.234 45.2124 13.388 45.6324 12.656C46.0644 11.912 46.6524 11.33 47.3964 10.91C48.1524 10.49 49.0104 10.28 49.9704 10.28C50.9064 10.28 51.7404 10.484 52.4724 10.892C53.2044 11.3 53.7804 11.876 54.2004 12.62C54.6204 13.364 54.8304 14.24 54.8304 15.248C54.8304 15.344 54.8244 15.452 54.8124 15.572C54.8124 15.692 54.8064 15.806 54.7944 15.914H46.7844V14.42H53.6064L52.7244 14.888C52.7364 14.336 52.6224 13.85 52.3824 13.43C52.1424 13.01 51.8124 12.68 51.3924 12.44C50.9844 12.2 50.5104 12.08 49.9704 12.08C49.4184 12.08 48.9324 12.2 48.5124 12.44C48.1044 12.68 47.7804 13.016 47.5404 13.448C47.3124 13.868 47.1984 14.366 47.1984 14.942V15.302C47.1984 15.878 47.3304 16.388 47.5944 16.832C47.8584 17.276 48.2304 17.618 48.7104 17.858C49.1904 18.098 49.7424 18.218 50.3664 18.218C50.9064 18.218 51.3924 18.134 51.8244 17.966C52.2564 17.798 52.6404 17.534 52.9764 17.174L54.1824 18.56C53.7504 19.064 53.2044 19.454 52.5444 19.73C51.8964 19.994 51.1524 20.126 50.3124 20.126ZM62.4456 10.28C63.2136 10.28 63.8976 10.43 64.4976 10.73C65.1096 11.03 65.5896 11.492 65.9376 12.116C66.2856 12.728 66.4596 13.52 66.4596 14.492V20H64.2096V14.78C64.2096 13.928 64.0056 13.292 63.5976 12.872C63.2016 12.452 62.6436 12.242 61.9236 12.242C61.3956 12.242 60.9276 12.35 60.5196 12.566C60.1116 12.782 59.7936 13.106 59.5656 13.538C59.3496 13.958 59.2416 14.492 59.2416 15.14V20H56.9916V10.388H59.1336V12.98L58.7556 12.188C59.0916 11.576 59.5776 11.108 60.2136 10.784C60.8616 10.448 61.6056 10.28 62.4456 10.28ZM72.9319 20.126C71.8759 20.126 71.0599 19.856 70.4839 19.316C69.9079 18.764 69.6199 17.954 69.6199 16.886V8.264H71.8699V16.832C71.8699 17.288 71.9839 17.642 72.2119 17.894C72.4519 18.146 72.7819 18.272 73.2019 18.272C73.7059 18.272 74.1259 18.14 74.4619 17.876L75.0919 19.478C74.8279 19.694 74.5039 19.856 74.1199 19.964C73.7359 20.072 73.3399 20.126 72.9319 20.126ZM68.0359 12.26V10.46H74.4439V12.26H68.0359ZM76.9428 20V10.388H79.0848V13.034L78.8328 12.26C79.1208 11.612 79.5708 11.12 80.1828 10.784C80.8068 10.448 81.5808 10.28 82.5048 10.28V12.422C82.4088 12.398 82.3188 12.386 82.2348 12.386C82.1508 12.374 82.0668 12.368 81.9828 12.368C81.1308 12.368 80.4528 12.62 79.9488 13.124C79.4448 13.616 79.1928 14.354 79.1928 15.338V20H76.9428ZM89.65 20V18.056L89.524 17.642V14.24C89.524 13.58 89.326 13.07 88.93 12.71C88.534 12.338 87.934 12.152 87.13 12.152C86.59 12.152 86.056 12.236 85.528 12.404C85.012 12.572 84.574 12.806 84.214 13.106L83.332 11.468C83.848 11.072 84.46 10.778 85.168 10.586C85.888 10.382 86.632 10.28 87.4 10.28C88.792 10.28 89.866 10.616 90.622 11.288C91.39 11.948 91.774 12.974 91.774 14.366V20H89.65ZM86.626 20.126C85.906 20.126 85.276 20.006 84.736 19.766C84.196 19.514 83.776 19.172 83.476 18.74C83.188 18.296 83.044 17.798 83.044 17.246C83.044 16.706 83.17 16.22 83.422 15.788C83.686 15.356 84.112 15.014 84.7 14.762C85.288 14.51 86.068 14.384 87.04 14.384H89.83V15.878H87.202C86.434 15.878 85.918 16.004 85.654 16.256C85.39 16.496 85.258 16.796 85.258 17.156C85.258 17.564 85.42 17.888 85.744 18.128C86.068 18.368 86.518 18.488 87.094 18.488C87.646 18.488 88.138 18.362 88.57 18.11C89.014 17.858 89.332 17.486 89.524 16.994L89.902 18.344C89.686 18.908 89.296 19.346 88.732 19.658C88.18 19.97 87.478 20.126 86.626 20.126ZM94.6615 20V6.644H96.9115V20H94.6615ZM105.319 10.28C106.087 10.28 106.771 10.43 107.371 10.73C107.983 11.03 108.463 11.492 108.811 12.116C109.159 12.728 109.333 13.52 109.333 14.492V20H107.083V14.78C107.083 13.928 106.879 13.292 106.471 12.872C106.075 12.452 105.517 12.242 104.797 12.242C104.269 12.242 103.801 12.35 103.393 12.566C102.985 12.782 102.667 13.106 102.439 13.538C102.223 13.958 102.115 14.492 102.115 15.14V20H99.8647V10.388H102.007V12.98L101.629 12.188C101.965 11.576 102.451 11.108 103.087 10.784C103.735 10.448 104.479 10.28 105.319 10.28ZM116.525 20.126C115.541 20.126 114.665 19.916 113.897 19.496C113.129 19.064 112.523 18.476 112.079 17.732C111.635 16.988 111.413 16.142 111.413 15.194C111.413 14.234 111.635 13.388 112.079 12.656C112.523 11.912 113.129 11.33 113.897 10.91C114.665 10.49 115.541 10.28 116.525 10.28C117.521 10.28 118.403 10.49 119.171 10.91C119.951 11.33 120.557 11.906 120.989 12.638C121.433 13.37 121.655 14.222 121.655 15.194C121.655 16.142 121.433 16.988 120.989 17.732C120.557 18.476 119.951 19.064 119.171 19.496C118.403 19.916 117.521 20.126 116.525 20.126ZM116.525 18.2C117.077 18.2 117.569 18.08 118.001 17.84C118.433 17.6 118.769 17.252 119.009 16.796C119.261 16.34 119.387 15.806 119.387 15.194C119.387 14.57 119.261 14.036 119.009 13.592C118.769 13.136 118.433 12.788 118.001 12.548C117.569 12.308 117.083 12.188 116.543 12.188C115.991 12.188 115.499 12.308 115.067 12.548C114.647 12.788 114.311 13.136 114.059 13.592C113.807 14.036 113.681 14.57 113.681 15.194C113.681 15.806 113.807 16.34 114.059 16.796C114.311 17.252 114.647 17.6 115.067 17.84C115.499 18.08 115.985 18.2 116.525 18.2ZM128.324 20.126C127.256 20.126 126.32 19.916 125.516 19.496C124.724 19.064 124.106 18.476 123.662 17.732C123.23 16.988 123.014 16.142 123.014 15.194C123.014 14.234 123.224 13.388 123.644 12.656C124.076 11.912 124.664 11.33 125.408 10.91C126.164 10.49 127.022 10.28 127.982 10.28C128.918 10.28 129.752 10.484 130.484 10.892C131.216 11.3 131.792 11.876 132.212 12.62C132.632 13.364 132.842 14.24 132.842 15.248C132.842 15.344 132.836 15.452 132.824 15.572C132.824 15.692 132.818 15.806 132.806 15.914H124.796V14.42H131.618L130.736 14.888C130.748 14.336 130.634 13.85 130.394 13.43C130.154 13.01 129.824 12.68 129.404 12.44C128.996 12.2 128.522 12.08 127.982 12.08C127.43 12.08 126.944 12.2 126.524 12.44C126.116 12.68 125.792 13.016 125.552 13.448C125.324 13.868 125.21 14.366 125.21 14.942V15.302C125.21 15.878 125.342 16.388 125.606 16.832C125.87 17.276 126.242 17.618 126.722 17.858C127.202 18.098 127.754 18.218 128.378 18.218C128.918 18.218 129.404 18.134 129.836 17.966C130.268 17.798 130.652 17.534 130.988 17.174L132.194 18.56C131.762 19.064 131.216 19.454 130.556 19.73C129.908 19.994 129.164 20.126 128.324 20.126ZM135.723 20.126C135.315 20.126 134.967 19.988 134.679 19.712C134.391 19.424 134.247 19.064 134.247 18.632C134.247 18.176 134.391 17.816 134.679 17.552C134.967 17.276 135.315 17.138 135.723 17.138C136.131 17.138 136.479 17.276 136.767 17.552C137.055 17.816 137.199 18.176 137.199 18.632C137.199 19.064 137.055 19.424 136.767 19.712C136.479 19.988 136.131 20.126 135.723 20.126ZM139.398 20V10.388H141.54V13.034L141.288 12.26C141.576 11.612 142.026 11.12 142.638 10.784C143.262 10.448 144.036 10.28 144.96 10.28V12.422C144.864 12.398 144.774 12.386 144.69 12.386C144.606 12.374 144.522 12.368 144.438 12.368C143.586 12.368 142.908 12.62 142.404 13.124C141.9 13.616 141.648 14.354 141.648 15.338V20H139.398ZM151.024 20.126C150.208 20.126 149.488 19.976 148.864 19.676C148.24 19.364 147.754 18.896 147.406 18.272C147.058 17.636 146.884 16.838 146.884 15.878V10.388H149.134V15.572C149.134 16.436 149.326 17.084 149.71 17.516C150.106 17.936 150.664 18.146 151.384 18.146C151.912 18.146 152.368 18.038 152.752 17.822C153.148 17.606 153.454 17.282 153.67 16.85C153.898 16.418 154.012 15.884 154.012 15.248V10.388H156.262V20H154.12V17.408L154.498 18.2C154.174 18.824 153.7 19.304 153.076 19.64C152.452 19.964 151.768 20.126 151.024 20.126Z" fill="#fff"/>
</svg>
